<?xml version="1.0" encoding="iso-8859-1"?>
<!-- Uploaded to: SVG Repo, www.svgrepo.com, Generator: SVG Repo Mixer Tools -->
<svg fill="#000000" height="800px" width="800px" version="1.1" id="Layer_1" xmlns="http://www.w3.org/2000/svg" xmlns:xlink="http://www.w3.org/1999/xlink" 
	 viewBox="0 0 512.002 512.002" xml:space="preserve">
<g>
	<g>
		<path d="M195.316,211.233c-1.162-1.691-3.774-1.311-4.397,0.652l-2.834,8.932l-16.398-5.203c-3.093-0.982-6.397,0.731-7.379,3.824
			l-9.433,29.732c10.582,1.239,19.52,9.291,21.406,20.307c0.011,0.064,0.017,0.128,0.028,0.19c0.676,4.141,0.28,8.212-0.992,11.927
			l8.151,2.586c1.984,0.63,4.104-0.469,4.733-2.453l17.548-55.305L195.316,211.233z"/>
	</g>
</g>
<g>
	<g>
		<path d="M100.201,139.067c-0.002,0-0.004,0-0.006-0.001c-17.89-2.73-34.669,9.546-37.418,27.507
			c-3.032,19.846,12.303,37.797,32.497,37.805c16.014,0,29.962-11.716,32.433-27.887
			C130.45,158.539,118.111,141.802,100.201,139.067z"/>
	</g>
</g>
<g>
	<g>
		<path d="M274.801,251.729c-1.975,0-3.577,1.602-3.577,3.577v17.111c0,1.975,1.602,3.577,3.577,3.577h7.389v-24.264H274.801z"/>
	</g>
</g>
<g>
	<g>
		<path d="M349.618,255.978c-5.024-0.15-9.846-1.656-14.003-4.249h-42.926v24.264h56.929L349.618,255.978L349.618,255.978z"/>
	</g>
</g>
<g>
	<g>
		<path d="M323.383,235.234c-1.707-6.339-1.09-12.752,1.316-18.349h-40.876v0.001v24.264h41.903
			C324.747,239.31,323.95,237.334,323.383,235.234z"/>
	</g>
</g>
<g>
	<g>
		<path d="M264.846,216.886c-1.975,0-3.577,1.602-3.577,3.577v17.111c0,1.975,1.602,3.577,3.577,3.577h9.488v-24.264H264.846z"/>
	</g>
</g>
<g>
	<g>
		<path d="M277.911,180.801c-1.975-0.001-3.577,1.6-3.577,3.577v17.111c0,1.975,1.602,3.577,3.577,3.577h56.324
			c0.006-0.004,0.011-0.008,0.017-0.012v-24.252H277.911z"/>
	</g>
</g>
<g>
	<g>
		<path d="M352.729,184.378c0-1.975-1.602-3.577-3.577-3.577h-5.022v19.807l8.6-2.314v-13.916H352.729z"/>
	</g>
</g>
<g>
	<g>
		<path d="M264.846,153.736c-1.975,0-3.577,1.602-3.577,3.577v11.51c0,1.976,1.602,3.578,3.577,3.578h11.744v-18.665H264.846z"/>
	</g>
</g>
<g>
	<g>
		<path d="M336.086,153.737h-52.262v18.665h52.262c1.975-0.001,3.577-1.603,3.577-3.578v-11.51
			C339.663,155.338,338.061,153.737,336.086,153.737z"/>
	</g>
</g>
<g>
	<g>
		<circle cx="416.955" cy="96.127" r="31.072"/>
	</g>
</g>
<g>
	<g>
		<path d="M511.546,424.807l-20.485-90.038l-10.676-60.017L471.7,158.399c-1.029-12.517-12.01-21.829-24.526-20.801l-40.416,3.322
			c-12.517,1.029-21.829,12.01-20.801,24.526l1.922,23.381l7.298-1.964l18.052-18.129l-16.241,31.045l-50.448,13.581
			c-8.053,2.168-12.826,10.453-10.657,18.506c2.17,8.062,10.464,12.822,18.506,10.657l56.839-15.3
			c4.072-1.096,7.499-3.845,9.455-7.582l19.307-36.906l-7.837,42.906c-1.133,6.199-5.735,10.891-11.437,12.436
			c-7.918,2.126-2.276,0.609-28.164,7.578l2.965,36.07l0.217-0.018l-18.471,50.359c-1.173,3.197-1.421,6.661-0.715,9.994
			l19.138,90.366c2.073,9.788,11.687,16.047,21.481,13.974c9.791-2.074,16.046-11.692,13.973-21.482l-18.058-85.268l22.453-61.216
			l8.573-0.705c0.122,0.684,11.368,63.979,11.522,64.653l20.58,90.459c2.222,9.761,11.934,15.87,21.689,13.649
			C507.656,444.276,513.767,434.565,511.546,424.807z"/>
	</g>
</g>
<g>
	<g>
		<path d="M362.837,285.26c-9.847,0-195.847,0-201.53,0c-0.008,0-0.015,0.001-0.022,0.001c4.091-3.272,6.33-8.609,5.382-14.137
			c-1.387-8.099-9.078-13.542-17.178-12.154l-43.138,7.388l-14.388-24.984l14.504,15.068l5.371-0.92l0.227-14.445
			c0.218-13.841-10.899-25.21-24.736-25.309c0,0-21.665-0.156-22.92-0.165c-13.855-0.1-25.134,11.137-25.095,24.985l0.213,77.621
			l-15.122-76.928c-1.313-6.675-7.78-11.024-14.462-9.71c-6.675,1.312-11.021,7.786-9.71,14.461l23.189,117.969
			c1.109,5.642,5.968,9.736,11.678,9.924L11.424,435.32c-1.631,4.23,0.477,8.983,4.707,10.615c4.235,1.633,8.986-0.478,10.616-4.707
			l11.485-29.78h55.649l5.777-16.423H44.568l8.131-21.083h54.379l8.131-23.137l11.56-0.034l-25.376,72.129
			c-3.272,9.302,1.616,19.497,10.917,22.769c9.317,3.276,19.501-1.628,22.77-10.917l21.964-62.431V315.72
			c-1.618-0.477-3.313-0.732-5.04-0.732c-0.017,0-0.035,0-0.051,0l-41.006,0.12l0.106-9.466c-11.045,1.891-6.488,1.111-13.316,2.281
			c-9.16,1.569-17.914-4.135-20.445-12.854L66.18,256.228l19.565,33.974c2.686,4.664,7.635,7.455,12.891,7.455
			c1.806,0-2.166,0.588,54.69-9.15c-2.147,2.084-3.485,4.996-3.485,8.225c0,6.434,5.253,11.47,11.47,11.47h5.578v126.41
			c0,5.838,4.236,12.082,13.119,12.082c6.674,0,12.082-5.41,12.082-12.082V308.201c5.29,0,135.269,0,140.712,0v125.892
			c0,6.959,5.642,12.601,12.601,12.601s12.601-5.642,12.601-12.601V308.201h4.837c6.334,0,11.47-5.136,11.47-11.47
			C374.31,290.396,369.172,285.26,362.837,285.26z M45.641,349.312l-2.13-10.833c3.692,5.754,9.255,9.43,15.476,10.833H45.641z"/>
	</g>
</g>
</svg>